<svg width="624" height="122" viewBox="0 0 624 122" fill="none" xmlns="http://www.w3.org/2000/svg">
<g clip-path="url(#clip0_5_41)">
<g filter="url(#filter0_d_5_41)">
<path d="M47.232 27.272H61.44C62.784 27.272 63.456 27.944 63.456 29.288V86.984C63.456 88.328 62.784 89 61.44 89H53.568C52.224 89 51.552 88.328 51.552 86.984V41.48H51.168L41.376 73.64C40.992 74.92 40.192 75.56 38.976 75.56H30.912C29.696 75.56 28.896 74.92 28.512 73.64L18.528 41.384H18.144V86.984C18.144 87.752 18.016 88.296 17.76 88.616C17.504 88.872 16.96 89 16.128 89H8.256C6.912 89 6.24 88.328 6.24 86.984V29.288C6.24 27.944 6.912 27.272 8.256 27.272H22.56C23.456 27.272 24.064 27.72 24.384 28.616L34.56 62.504H35.136L45.408 28.616C45.6 27.72 46.208 27.272 47.232 27.272ZM82.3282 89H73.1123C71.9603 89 71.5763 88.328 71.9603 86.984L87.1283 29.288C87.5763 27.944 88.5363 27.272 90.0083 27.272H102.776C104.376 27.272 105.336 27.944 105.656 29.288L120.824 86.984C121.208 88.328 120.824 89 119.672 89H110.456C109.752 89 109.272 88.872 109.016 88.616C108.76 88.296 108.568 87.752 108.44 86.984L105.752 76.424H87.0323L84.3443 86.984C84.2163 87.752 83.9923 88.296 83.6723 88.616C83.4163 88.872 82.9683 89 82.3282 89ZM96.2483 38.888L89.3363 66.632H103.544L96.6323 38.888H96.2483ZM139.51 89H131.35C130.006 89 129.334 88.328 129.334 86.984V29.288C129.334 27.944 130.006 27.272 131.35 27.272H139.51C140.854 27.272 141.526 27.944 141.526 29.288V56.648H141.718C142.23 55.112 143.222 53.128 144.694 50.696L159.286 29.288C160.118 27.944 161.366 27.272 163.03 27.272H172.438C173.142 27.272 173.558 27.496 173.686 27.944C173.878 28.328 173.718 28.84 173.206 29.48L154.966 54.728L175.318 86.6C175.766 87.368 175.83 87.976 175.51 88.424C175.254 88.808 174.678 89 173.782 89H166.774C164.534 89 163.03 88.328 162.262 86.984L147.574 63.464L141.526 70.568V86.984C141.526 88.328 140.854 89 139.51 89ZM216.273 89H184.881C183.537 89 182.865 88.328 182.865 86.984V29.288C182.865 27.944 183.537 27.272 184.881 27.272H216.273C217.553 27.272 218.193 27.944 218.193 29.288V35.816C218.193 37.16 217.553 37.832 216.273 37.832H196.209C195.441 37.832 195.057 38.184 195.057 38.888V51.368C195.057 52.072 195.441 52.424 196.209 52.424H212.625C213.969 52.424 214.641 53.096 214.641 54.44V60.968C214.641 62.312 213.969 62.984 212.625 62.984H196.209C195.441 62.984 195.057 63.336 195.057 64.04V77.384C195.057 78.088 195.441 78.44 196.209 78.44H216.273C217.553 78.44 218.193 79.112 218.193 80.456V86.984C218.193 88.328 217.553 89 216.273 89ZM238.979 89H230.819C229.475 89 228.803 88.328 228.803 86.984V29.288C228.803 27.944 229.475 27.272 230.819 27.272H253.667C258.659 27.272 262.563 28.648 265.379 31.4C268.195 34.152 269.603 38.024 269.603 43.016V50.504C269.603 57.736 266.755 62.536 261.059 64.904V65.288L271.331 86.696C271.907 88.232 271.363 89 269.699 89H261.923C260.771 89 259.939 88.872 259.427 88.616C258.915 88.36 258.499 87.816 258.179 86.984L248.579 66.248H242.147C241.379 66.248 240.995 66.6 240.995 67.304V86.984C240.995 88.328 240.323 89 238.979 89ZM242.051 56.456H251.459C253.507 56.456 255.011 56.04 255.971 55.208C256.931 54.312 257.411 52.904 257.411 50.984V43.496C257.411 41.512 256.931 40.072 255.971 39.176C255.011 38.28 253.507 37.832 251.459 37.832H242.051C241.347 37.832 240.995 38.184 240.995 38.888V55.4C240.995 56.104 241.347 56.456 242.051 56.456Z" fill="#394851"/>
<path d="M308.208 89H303.792C303.152 89 302.736 88.616 302.544 87.848L284.688 28.424C284.432 27.656 284.72 27.272 285.552 27.272H288.528C289.168 27.272 289.584 27.656 289.776 28.424L305.808 83.048H306.192L322.224 28.424C322.416 27.656 322.832 27.272 323.472 27.272H326.448C327.216 27.272 327.504 27.656 327.312 28.424L309.456 87.848C309.264 88.616 308.848 89 308.208 89ZM368.784 89H339.12C338.48 89 338.16 88.616 338.16 87.848V28.424C338.16 27.656 338.48 27.272 339.12 27.272H368.784C369.552 27.272 369.936 27.624 369.936 28.328V30.536C369.936 31.24 369.552 31.592 368.784 31.592H343.92C343.28 31.592 342.96 31.88 342.96 32.456V54.536C342.96 55.112 343.28 55.4 343.92 55.4H366.096C366.8 55.4 367.152 55.752 367.152 56.456V58.664C367.152 59.368 366.8 59.72 366.096 59.72H343.92C343.28 59.72 342.96 60.008 342.96 60.584V83.816C342.96 84.392 343.28 84.68 343.92 84.68H368.784C369.552 84.68 369.936 85.032 369.936 85.736V87.944C369.936 88.648 369.552 89 368.784 89ZM388.123 89H385.339C384.699 89 384.379 88.616 384.379 87.848V28.424C384.379 27.656 384.699 27.272 385.339 27.272H387.931C388.507 27.272 388.891 27.464 389.083 27.848L418.555 78.536H418.939V28.424C418.939 27.656 419.291 27.272 419.995 27.272H422.683C423.387 27.272 423.739 27.656 423.739 28.424V87.848C423.739 88.616 423.387 89 422.683 89H420.475C419.899 89 419.387 88.648 418.939 87.944L389.563 37.64H389.179V87.848C389.179 88.616 388.827 89 388.123 89ZM453.413 89H450.629C449.925 89 449.573 88.616 449.573 87.848V32.456C449.573 31.88 449.253 31.592 448.613 31.592H434.693C433.925 31.592 433.541 31.24 433.541 30.536V28.328C433.541 27.624 433.925 27.272 434.693 27.272H469.253C470.021 27.272 470.405 27.624 470.405 28.328V30.536C470.405 31.24 470.021 31.592 469.253 31.592H455.333C454.693 31.592 454.373 31.88 454.373 32.456V87.848C454.373 88.616 454.053 89 453.413 89ZM493.149 84.68H504.093C507.037 84.68 509.277 83.88 510.813 82.28C512.413 80.616 513.213 78.248 513.213 75.176V41.096C513.213 38.024 512.413 35.688 510.813 34.088C509.277 32.424 507.037 31.592 504.093 31.592H493.149C490.205 31.592 487.965 32.424 486.429 34.088C484.893 35.752 484.125 38.088 484.125 41.096V75.176C484.125 78.184 484.893 80.52 486.429 82.184C487.965 83.848 490.205 84.68 493.149 84.68ZM504.573 89H492.765C488.605 89 485.309 87.784 482.877 85.352C480.509 82.92 479.325 79.592 479.325 75.368V40.904C479.325 36.68 480.509 33.352 482.877 30.92C485.309 28.488 488.605 27.272 492.765 27.272H504.573C508.733 27.272 511.997 28.488 514.365 30.92C516.797 33.352 518.013 36.68 518.013 40.904V75.368C518.013 79.592 516.797 82.92 514.365 85.352C511.997 87.784 508.733 89 504.573 89ZM537.092 89H534.308C533.668 89 533.348 88.616 533.348 87.848V28.424C533.348 27.656 533.668 27.272 534.308 27.272H556.196C560.356 27.272 563.652 28.488 566.084 30.92C568.516 33.352 569.732 36.68 569.732 40.904V50.024C569.732 53.608 568.804 56.552 566.948 58.856C565.156 61.16 562.692 62.632 559.556 63.272V63.656L570.98 87.848C571.364 88.616 571.14 89 570.308 89H567.332C566.5 89 565.924 88.616 565.604 87.848L554.276 63.656H539.108C538.468 63.656 538.148 63.944 538.148 64.52V87.848C538.148 88.616 537.796 89 537.092 89ZM539.108 59.528H555.716C558.66 59.528 560.932 58.728 562.532 57.128C564.132 55.464 564.932 53.128 564.932 50.12V41.096C564.932 38.088 564.132 35.752 562.532 34.088C560.932 32.424 558.66 31.592 555.716 31.592H539.108C538.468 31.592 538.148 31.88 538.148 32.456V58.664C538.148 59.24 538.468 59.528 539.108 59.528ZM601.525 89H598.741C598.037 89 597.685 88.616 597.685 87.848V65.672L579.061 28.424C578.677 27.656 578.901 27.272 579.733 27.272H583.189C583.765 27.272 584.213 27.656 584.533 28.424L599.893 59.816H600.373L615.637 28.424C615.957 27.656 616.405 27.272 616.981 27.272H620.533C621.237 27.272 621.461 27.656 621.205 28.424L602.485 65.672V87.848C602.485 88.616 602.165 89 601.525 89Z" fill="#394851"/>
</g>
</g>
<defs>
<filter id="filter0_d_5_41" x="2.23999" y="27.272" width="623.349" height="69.728" filterUnits="userSpaceOnUse" color-interpolation-filters="sRGB">
<feFlood flood-opacity="0" result="BackgroundImageFix"/>
<feColorMatrix in="SourceAlpha" type="matrix" values="0 0 0 0 0 0 0 0 0 0 0 0 0 0 0 0 0 0 127 0" result="hardAlpha"/>
<feOffset dy="4"/>
<feGaussianBlur stdDeviation="2"/>
<feComposite in2="hardAlpha" operator="out"/>
<feColorMatrix type="matrix" values="0 0 0 0 0 0 0 0 0 0 0 0 0 0 0 0 0 0 0.25 0"/>
<feBlend mode="normal" in2="BackgroundImageFix" result="effect1_dropShadow_5_41"/>
<feBlend mode="normal" in="SourceGraphic" in2="effect1_dropShadow_5_41" result="shape"/>
</filter>
<clipPath id="clip0_5_41">
<rect width="624" height="122" fill="white"/>
</clipPath>
</defs>
</svg>
