<svg width="1200" height="400" viewBox="0 0 1200 400" fill="none" xmlns="http://www.w3.org/2000/svg">
<g filter="url(#filter0_d_1_104)">
<path d="M314 293.113L275.695 307.5V271.536L314 257.594V293.113ZM344 281.847L322 290.109V255H321.128L344 246.675V281.847ZM371.455 271.536L352 278.842V243.763L371.455 236.683V271.536Z" fill="#394851"/>
</g>
<g filter="url(#filter1_d_1_104)">
<path d="M270.68 271.768V307.5L232 293.03V257.688L270.68 271.768ZM224.612 255H224V290.038L202 281.809V246.77L224.612 255ZM194.389 244H194V278.816L175.156 271.768V237L194.389 244Z" fill="#394851"/>
</g>
<g filter="url(#filter2_d_1_104)">
<path d="M176 170H203V241.5L176 232V170Z" fill="#394851"/>
</g>
<g filter="url(#filter3_d_1_104)">
<path d="M371 170H344V242L371 232.434V170Z" fill="#394851"/>
</g>
<g filter="url(#filter4_d_1_104)">
<circle cx="273" cy="180" r="6" fill="#1297E2"/>
</g>
<g filter="url(#filter5_d_1_104)">
<path d="M176 97C176 94.2386 178.239 92 181 92H198C200.761 92 203 94.2386 203 97V121H176V97Z" fill="#394851"/>
</g>
<g filter="url(#filter6_d_1_104)">
<path d="M344 97C344 94.2386 346.239 92 349 92H366C368.761 92 371 94.2386 371 97V121H344V97Z" fill="#394851"/>
</g>
<g filter="url(#filter7_d_1_104)">
<path d="M206 124C208.761 124 211 126.239 211 129V132H255V129C255 126.239 257.239 124 260 124H269V120L269.5 115.5L271 111.5L273.5 108L276.5 105.5L279 104L281 103L285 102H344V110H288L285 110.5L282.5 112L280.5 114L278.5 117.5L277.5 121V124H286C288.761 124 291 126.239 291 129V132H336V129C336 126.239 338.239 124 341 124H373C375.761 124 378 126.239 378 129V161C378 163.761 375.761 166 373 166H341C338.239 166 336 163.761 336 161V156H291V159C291 161.675 288.899 163.859 286.257 163.993L286 164V166C286 168.761 283.761 171 281 171H265C262.239 171 260 168.761 260 166V164C257.239 164 255 161.761 255 159V156H211V161C211 163.761 208.761 166 206 166H174C171.239 166 169 163.761 169 161V129C169 126.239 171.239 124 174 124H206ZM211 148H255V140H211V148ZM291 148H336V140H291V148Z" fill="#394851"/>
</g>
<g filter="url(#filter8_d_1_104)">
<path d="M272.581 192.051C272.683 192.018 272.792 192.018 272.894 192.052L330.139 211.049C330.589 211.198 330.598 211.83 330.154 211.993L272.908 232.938C272.798 232.978 272.677 232.978 272.567 232.939L214.371 211.994C213.923 211.832 213.933 211.196 214.385 211.048L272.581 192.051Z" fill="#394851"/>
</g>
<g filter="url(#filter9_d_1_104)">
<path d="M321.071 223.047C321.186 223.007 321.312 223.011 321.425 223.057L331.068 227.002C331.489 227.174 331.48 227.773 331.054 227.933L272.912 249.7C272.825 249.733 272.737 249.737 272.653 249.723C272.554 249.752 272.446 249.755 272.338 249.715L214.195 227.948C213.77 227.789 213.761 227.189 214.182 227.017L223.825 223.071C223.938 223.025 224.064 223.023 224.179 223.063L272.604 239.858L321.071 223.047Z" fill="#394851"/>
</g>
<g filter="url(#filter10_d_1_104)">
<path d="M321.2 240.028C321.315 239.988 321.441 239.991 321.554 240.037L331.197 243.983C331.618 244.155 331.609 244.754 331.183 244.913L273.041 266.681C272.954 266.713 272.866 266.718 272.782 266.703C272.683 266.733 272.575 266.736 272.467 266.695L214.324 244.929C213.899 244.769 213.89 244.169 214.311 243.997L223.954 240.052C224.067 240.006 224.193 240.003 224.308 240.043L272.733 256.839L321.2 240.028Z" fill="#394851"/>
</g>
<g filter="url(#filter11_d_1_104)">
<path d="M454.232 172.272H468.44C469.784 172.272 470.456 172.944 470.456 174.288V231.984C470.456 233.328 469.784 234 468.44 234H460.568C459.224 234 458.552 233.328 458.552 231.984V186.48H458.168L448.376 218.64C447.992 219.92 447.192 220.56 445.976 220.56H437.912C436.696 220.56 435.896 219.92 435.512 218.64L425.528 186.384H425.144V231.984C425.144 232.752 425.016 233.296 424.76 233.616C424.504 233.872 423.96 234 423.128 234H415.256C413.912 234 413.24 233.328 413.24 231.984V174.288C413.24 172.944 413.912 172.272 415.256 172.272H429.56C430.456 172.272 431.064 172.72 431.384 173.616L441.56 207.504H442.136L452.408 173.616C452.6 172.72 453.208 172.272 454.232 172.272ZM489.328 234H480.112C478.96 234 478.576 233.328 478.96 231.984L494.128 174.288C494.576 172.944 495.536 172.272 497.008 172.272H509.776C511.376 172.272 512.336 172.944 512.656 174.288L527.824 231.984C528.208 233.328 527.824 234 526.672 234H517.456C516.752 234 516.272 233.872 516.016 233.616C515.76 233.296 515.568 232.752 515.44 231.984L512.752 221.424H494.032L491.344 231.984C491.216 232.752 490.992 233.296 490.672 233.616C490.416 233.872 489.968 234 489.328 234ZM503.248 183.888L496.336 211.632H510.544L503.632 183.888H503.248ZM546.51 234H538.35C537.006 234 536.334 233.328 536.334 231.984V174.288C536.334 172.944 537.006 172.272 538.35 172.272H546.51C547.854 172.272 548.526 172.944 548.526 174.288V201.648H548.718C549.23 200.112 550.222 198.128 551.694 195.696L566.286 174.288C567.118 172.944 568.366 172.272 570.03 172.272H579.438C580.142 172.272 580.558 172.496 580.686 172.944C580.878 173.328 580.718 173.84 580.206 174.48L561.966 199.728L582.318 231.6C582.766 232.368 582.83 232.976 582.51 233.424C582.254 233.808 581.678 234 580.782 234H573.774C571.534 234 570.03 233.328 569.262 231.984L554.574 208.464L548.526 215.568V231.984C548.526 233.328 547.854 234 546.51 234ZM623.273 234H591.881C590.537 234 589.865 233.328 589.865 231.984V174.288C589.865 172.944 590.537 172.272 591.881 172.272H623.273C624.553 172.272 625.193 172.944 625.193 174.288V180.816C625.193 182.16 624.553 182.832 623.273 182.832H603.209C602.441 182.832 602.057 183.184 602.057 183.888V196.368C602.057 197.072 602.441 197.424 603.209 197.424H619.625C620.969 197.424 621.641 198.096 621.641 199.44V205.968C621.641 207.312 620.969 207.984 619.625 207.984H603.209C602.441 207.984 602.057 208.336 602.057 209.04V222.384C602.057 223.088 602.441 223.44 603.209 223.44H623.273C624.553 223.44 625.193 224.112 625.193 225.456V231.984C625.193 233.328 624.553 234 623.273 234ZM645.979 234H637.819C636.475 234 635.803 233.328 635.803 231.984V174.288C635.803 172.944 636.475 172.272 637.819 172.272H660.667C665.659 172.272 669.563 173.648 672.379 176.4C675.195 179.152 676.603 183.024 676.603 188.016V195.504C676.603 202.736 673.755 207.536 668.059 209.904V210.288L678.331 231.696C678.907 233.232 678.363 234 676.699 234H668.923C667.771 234 666.939 233.872 666.427 233.616C665.915 233.36 665.499 232.816 665.179 231.984L655.579 211.248H649.147C648.379 211.248 647.995 211.6 647.995 212.304V231.984C647.995 233.328 647.323 234 645.979 234ZM649.051 201.456H658.459C660.507 201.456 662.011 201.04 662.971 200.208C663.931 199.312 664.411 197.904 664.411 195.984V188.496C664.411 186.512 663.931 185.072 662.971 184.176C662.011 183.28 660.507 182.832 658.459 182.832H649.051C648.347 182.832 647.995 183.184 647.995 183.888V200.4C647.995 201.104 648.347 201.456 649.051 201.456Z" fill="#394851"/>
<path d="M715.208 234H710.792C710.152 234 709.736 233.616 709.544 232.848L691.688 173.424C691.432 172.656 691.72 172.272 692.552 172.272H695.528C696.168 172.272 696.584 172.656 696.776 173.424L712.808 228.048H713.192L729.224 173.424C729.416 172.656 729.832 172.272 730.472 172.272H733.448C734.216 172.272 734.504 172.656 734.312 173.424L716.456 232.848C716.264 233.616 715.848 234 715.208 234ZM775.784 234H746.12C745.48 234 745.16 233.616 745.16 232.848V173.424C745.16 172.656 745.48 172.272 746.12 172.272H775.784C776.552 172.272 776.936 172.624 776.936 173.328V175.536C776.936 176.24 776.552 176.592 775.784 176.592H750.92C750.28 176.592 749.96 176.88 749.96 177.456V199.536C749.96 200.112 750.28 200.4 750.92 200.4H773.096C773.8 200.4 774.152 200.752 774.152 201.456V203.664C774.152 204.368 773.8 204.72 773.096 204.72H750.92C750.28 204.72 749.96 205.008 749.96 205.584V228.816C749.96 229.392 750.28 229.68 750.92 229.68H775.784C776.552 229.68 776.936 230.032 776.936 230.736V232.944C776.936 233.648 776.552 234 775.784 234ZM795.123 234H792.339C791.699 234 791.379 233.616 791.379 232.848V173.424C791.379 172.656 791.699 172.272 792.339 172.272H794.931C795.507 172.272 795.891 172.464 796.083 172.848L825.555 223.536H825.939V173.424C825.939 172.656 826.291 172.272 826.995 172.272H829.683C830.387 172.272 830.739 172.656 830.739 173.424V232.848C830.739 233.616 830.387 234 829.683 234H827.475C826.899 234 826.387 233.648 825.939 232.944L796.563 182.64H796.179V232.848C796.179 233.616 795.827 234 795.123 234ZM860.413 234H857.629C856.925 234 856.573 233.616 856.573 232.848V177.456C856.573 176.88 856.253 176.592 855.613 176.592H841.693C840.925 176.592 840.541 176.24 840.541 175.536V173.328C840.541 172.624 840.925 172.272 841.693 172.272H876.253C877.021 172.272 877.405 172.624 877.405 173.328V175.536C877.405 176.24 877.021 176.592 876.253 176.592H862.333C861.693 176.592 861.373 176.88 861.373 177.456V232.848C861.373 233.616 861.053 234 860.413 234ZM900.149 229.68H911.093C914.037 229.68 916.277 228.88 917.813 227.28C919.413 225.616 920.213 223.248 920.213 220.176V186.096C920.213 183.024 919.413 180.688 917.813 179.088C916.277 177.424 914.037 176.592 911.093 176.592H900.149C897.205 176.592 894.965 177.424 893.429 179.088C891.893 180.752 891.125 183.088 891.125 186.096V220.176C891.125 223.184 891.893 225.52 893.429 227.184C894.965 228.848 897.205 229.68 900.149 229.68ZM911.573 234H899.765C895.605 234 892.309 232.784 889.877 230.352C887.509 227.92 886.325 224.592 886.325 220.368V185.904C886.325 181.68 887.509 178.352 889.877 175.92C892.309 173.488 895.605 172.272 899.765 172.272H911.573C915.733 172.272 918.997 173.488 921.365 175.92C923.797 178.352 925.013 181.68 925.013 185.904V220.368C925.013 224.592 923.797 227.92 921.365 230.352C918.997 232.784 915.733 234 911.573 234ZM944.092 234H941.308C940.668 234 940.348 233.616 940.348 232.848V173.424C940.348 172.656 940.668 172.272 941.308 172.272H963.196C967.356 172.272 970.652 173.488 973.084 175.92C975.516 178.352 976.732 181.68 976.732 185.904V195.024C976.732 198.608 975.804 201.552 973.948 203.856C972.156 206.16 969.692 207.632 966.556 208.272V208.656L977.98 232.848C978.364 233.616 978.14 234 977.308 234H974.332C973.5 234 972.924 233.616 972.604 232.848L961.276 208.656H946.108C945.468 208.656 945.148 208.944 945.148 209.52V232.848C945.148 233.616 944.796 234 944.092 234ZM946.108 204.528H962.716C965.66 204.528 967.932 203.728 969.532 202.128C971.132 200.464 971.932 198.128 971.932 195.12V186.096C971.932 183.088 971.132 180.752 969.532 179.088C967.932 177.424 965.66 176.592 962.716 176.592H946.108C945.468 176.592 945.148 176.88 945.148 177.456V203.664C945.148 204.24 945.468 204.528 946.108 204.528ZM1008.52 234H1005.74C1005.04 234 1004.68 233.616 1004.68 232.848V210.672L986.061 173.424C985.677 172.656 985.901 172.272 986.733 172.272H990.189C990.765 172.272 991.213 172.656 991.533 173.424L1006.89 204.816H1007.37L1022.64 173.424C1022.96 172.656 1023.4 172.272 1023.98 172.272H1027.53C1028.24 172.272 1028.46 172.656 1028.2 173.424L1009.48 210.672V232.848C1009.48 233.616 1009.16 234 1008.52 234Z" fill="#394851"/>
</g>
<defs>
<filter id="filter0_d_1_104" x="271.695" y="236.683" width="103.76" height="78.8174" filterUnits="userSpaceOnUse" color-interpolation-filters="sRGB">
<feFlood flood-opacity="0" result="BackgroundImageFix"/>
<feColorMatrix in="SourceAlpha" type="matrix" values="0 0 0 0 0 0 0 0 0 0 0 0 0 0 0 0 0 0 127 0" result="hardAlpha"/>
<feOffset dy="4"/>
<feGaussianBlur stdDeviation="2"/>
<feComposite in2="hardAlpha" operator="out"/>
<feColorMatrix type="matrix" values="0 0 0 0 0 0 0 0 0 0 0 0 0 0 0 0 0 0 0.25 0"/>
<feBlend mode="normal" in2="BackgroundImageFix" result="effect1_dropShadow_1_104"/>
<feBlend mode="normal" in="SourceGraphic" in2="effect1_dropShadow_1_104" result="shape"/>
</filter>
<filter id="filter1_d_1_104" x="171.156" y="237" width="103.523" height="78.5" filterUnits="userSpaceOnUse" color-interpolation-filters="sRGB">
<feFlood flood-opacity="0" result="BackgroundImageFix"/>
<feColorMatrix in="SourceAlpha" type="matrix" values="0 0 0 0 0 0 0 0 0 0 0 0 0 0 0 0 0 0 127 0" result="hardAlpha"/>
<feOffset dy="4"/>
<feGaussianBlur stdDeviation="2"/>
<feComposite in2="hardAlpha" operator="out"/>
<feColorMatrix type="matrix" values="0 0 0 0 0 0 0 0 0 0 0 0 0 0 0 0 0 0 0.25 0"/>
<feBlend mode="normal" in2="BackgroundImageFix" result="effect1_dropShadow_1_104"/>
<feBlend mode="normal" in="SourceGraphic" in2="effect1_dropShadow_1_104" result="shape"/>
</filter>
<filter id="filter2_d_1_104" x="172" y="170" width="35" height="79.5" filterUnits="userSpaceOnUse" color-interpolation-filters="sRGB">
<feFlood flood-opacity="0" result="BackgroundImageFix"/>
<feColorMatrix in="SourceAlpha" type="matrix" values="0 0 0 0 0 0 0 0 0 0 0 0 0 0 0 0 0 0 127 0" result="hardAlpha"/>
<feOffset dy="4"/>
<feGaussianBlur stdDeviation="2"/>
<feComposite in2="hardAlpha" operator="out"/>
<feColorMatrix type="matrix" values="0 0 0 0 0 0 0 0 0 0 0 0 0 0 0 0 0 0 0.25 0"/>
<feBlend mode="normal" in2="BackgroundImageFix" result="effect1_dropShadow_1_104"/>
<feBlend mode="normal" in="SourceGraphic" in2="effect1_dropShadow_1_104" result="shape"/>
</filter>
<filter id="filter3_d_1_104" x="340" y="170" width="35" height="80" filterUnits="userSpaceOnUse" color-interpolation-filters="sRGB">
<feFlood flood-opacity="0" result="BackgroundImageFix"/>
<feColorMatrix in="SourceAlpha" type="matrix" values="0 0 0 0 0 0 0 0 0 0 0 0 0 0 0 0 0 0 127 0" result="hardAlpha"/>
<feOffset dy="4"/>
<feGaussianBlur stdDeviation="2"/>
<feComposite in2="hardAlpha" operator="out"/>
<feColorMatrix type="matrix" values="0 0 0 0 0 0 0 0 0 0 0 0 0 0 0 0 0 0 0.25 0"/>
<feBlend mode="normal" in2="BackgroundImageFix" result="effect1_dropShadow_1_104"/>
<feBlend mode="normal" in="SourceGraphic" in2="effect1_dropShadow_1_104" result="shape"/>
</filter>
<filter id="filter4_d_1_104" x="263" y="174" width="20" height="20" filterUnits="userSpaceOnUse" color-interpolation-filters="sRGB">
<feFlood flood-opacity="0" result="BackgroundImageFix"/>
<feColorMatrix in="SourceAlpha" type="matrix" values="0 0 0 0 0 0 0 0 0 0 0 0 0 0 0 0 0 0 127 0" result="hardAlpha"/>
<feOffset dy="4"/>
<feGaussianBlur stdDeviation="2"/>
<feComposite in2="hardAlpha" operator="out"/>
<feColorMatrix type="matrix" values="0 0 0 0 0 0 0 0 0 0 0 0 0 0 0 0 0 0 0.25 0"/>
<feBlend mode="normal" in2="BackgroundImageFix" result="effect1_dropShadow_1_104"/>
<feBlend mode="normal" in="SourceGraphic" in2="effect1_dropShadow_1_104" result="shape"/>
</filter>
<filter id="filter5_d_1_104" x="172" y="92" width="35" height="37" filterUnits="userSpaceOnUse" color-interpolation-filters="sRGB">
<feFlood flood-opacity="0" result="BackgroundImageFix"/>
<feColorMatrix in="SourceAlpha" type="matrix" values="0 0 0 0 0 0 0 0 0 0 0 0 0 0 0 0 0 0 127 0" result="hardAlpha"/>
<feOffset dy="4"/>
<feGaussianBlur stdDeviation="2"/>
<feComposite in2="hardAlpha" operator="out"/>
<feColorMatrix type="matrix" values="0 0 0 0 0 0 0 0 0 0 0 0 0 0 0 0 0 0 0.25 0"/>
<feBlend mode="normal" in2="BackgroundImageFix" result="effect1_dropShadow_1_104"/>
<feBlend mode="normal" in="SourceGraphic" in2="effect1_dropShadow_1_104" result="shape"/>
</filter>
<filter id="filter6_d_1_104" x="340" y="92" width="35" height="37" filterUnits="userSpaceOnUse" color-interpolation-filters="sRGB">
<feFlood flood-opacity="0" result="BackgroundImageFix"/>
<feColorMatrix in="SourceAlpha" type="matrix" values="0 0 0 0 0 0 0 0 0 0 0 0 0 0 0 0 0 0 127 0" result="hardAlpha"/>
<feOffset dy="4"/>
<feGaussianBlur stdDeviation="2"/>
<feComposite in2="hardAlpha" operator="out"/>
<feColorMatrix type="matrix" values="0 0 0 0 0 0 0 0 0 0 0 0 0 0 0 0 0 0 0.25 0"/>
<feBlend mode="normal" in2="BackgroundImageFix" result="effect1_dropShadow_1_104"/>
<feBlend mode="normal" in="SourceGraphic" in2="effect1_dropShadow_1_104" result="shape"/>
</filter>
<filter id="filter7_d_1_104" x="165" y="102" width="217" height="77" filterUnits="userSpaceOnUse" color-interpolation-filters="sRGB">
<feFlood flood-opacity="0" result="BackgroundImageFix"/>
<feColorMatrix in="SourceAlpha" type="matrix" values="0 0 0 0 0 0 0 0 0 0 0 0 0 0 0 0 0 0 127 0" result="hardAlpha"/>
<feOffset dy="4"/>
<feGaussianBlur stdDeviation="2"/>
<feComposite in2="hardAlpha" operator="out"/>
<feColorMatrix type="matrix" values="0 0 0 0 0 0 0 0 0 0 0 0 0 0 0 0 0 0 0.25 0"/>
<feBlend mode="normal" in2="BackgroundImageFix" result="effect1_dropShadow_1_104"/>
<feBlend mode="normal" in="SourceGraphic" in2="effect1_dropShadow_1_104" result="shape"/>
</filter>
<filter id="filter8_d_1_104" x="210.041" y="192.026" width="124.441" height="48.9417" filterUnits="userSpaceOnUse" color-interpolation-filters="sRGB">
<feFlood flood-opacity="0" result="BackgroundImageFix"/>
<feColorMatrix in="SourceAlpha" type="matrix" values="0 0 0 0 0 0 0 0 0 0 0 0 0 0 0 0 0 0 127 0" result="hardAlpha"/>
<feOffset dy="4"/>
<feGaussianBlur stdDeviation="2"/>
<feComposite in2="hardAlpha" operator="out"/>
<feColorMatrix type="matrix" values="0 0 0 0 0 0 0 0 0 0 0 0 0 0 0 0 0 0 0.25 0"/>
<feBlend mode="normal" in2="BackgroundImageFix" result="effect1_dropShadow_1_104"/>
<feBlend mode="normal" in="SourceGraphic" in2="effect1_dropShadow_1_104" result="shape"/>
</filter>
<filter id="filter9_d_1_104" x="209.871" y="223.019" width="125.508" height="34.7256" filterUnits="userSpaceOnUse" color-interpolation-filters="sRGB">
<feFlood flood-opacity="0" result="BackgroundImageFix"/>
<feColorMatrix in="SourceAlpha" type="matrix" values="0 0 0 0 0 0 0 0 0 0 0 0 0 0 0 0 0 0 127 0" result="hardAlpha"/>
<feOffset dy="4"/>
<feGaussianBlur stdDeviation="2"/>
<feComposite in2="hardAlpha" operator="out"/>
<feColorMatrix type="matrix" values="0 0 0 0 0 0 0 0 0 0 0 0 0 0 0 0 0 0 0.25 0"/>
<feBlend mode="normal" in2="BackgroundImageFix" result="effect1_dropShadow_1_104"/>
<feBlend mode="normal" in="SourceGraphic" in2="effect1_dropShadow_1_104" result="shape"/>
</filter>
<filter id="filter10_d_1_104" x="210" y="240" width="125.508" height="34.7256" filterUnits="userSpaceOnUse" color-interpolation-filters="sRGB">
<feFlood flood-opacity="0" result="BackgroundImageFix"/>
<feColorMatrix in="SourceAlpha" type="matrix" values="0 0 0 0 0 0 0 0 0 0 0 0 0 0 0 0 0 0 127 0" result="hardAlpha"/>
<feOffset dy="4"/>
<feGaussianBlur stdDeviation="2"/>
<feComposite in2="hardAlpha" operator="out"/>
<feColorMatrix type="matrix" values="0 0 0 0 0 0 0 0 0 0 0 0 0 0 0 0 0 0 0.25 0"/>
<feBlend mode="normal" in2="BackgroundImageFix" result="effect1_dropShadow_1_104"/>
<feBlend mode="normal" in="SourceGraphic" in2="effect1_dropShadow_1_104" result="shape"/>
</filter>
<filter id="filter11_d_1_104" x="409.24" y="172.272" width="623.349" height="69.728" filterUnits="userSpaceOnUse" color-interpolation-filters="sRGB">
<feFlood flood-opacity="0" result="BackgroundImageFix"/>
<feColorMatrix in="SourceAlpha" type="matrix" values="0 0 0 0 0 0 0 0 0 0 0 0 0 0 0 0 0 0 127 0" result="hardAlpha"/>
<feOffset dy="4"/>
<feGaussianBlur stdDeviation="2"/>
<feComposite in2="hardAlpha" operator="out"/>
<feColorMatrix type="matrix" values="0 0 0 0 0 0 0 0 0 0 0 0 0 0 0 0 0 0 0.25 0"/>
<feBlend mode="normal" in2="BackgroundImageFix" result="effect1_dropShadow_1_104"/>
<feBlend mode="normal" in="SourceGraphic" in2="effect1_dropShadow_1_104" result="shape"/>
</filter>
</defs>
</svg>
