<svg width="650" height="122" viewBox="0 0 650 122" fill="none" xmlns="http://www.w3.org/2000/svg">
<g filter="url(#filter0_d_5_2)">
<path d="M60.232 27.272H74.44C75.784 27.272 76.456 27.944 76.456 29.288V86.984C76.456 88.328 75.784 89 74.44 89H66.568C65.224 89 64.552 88.328 64.552 86.984V41.48H64.168L54.376 73.64C53.992 74.92 53.192 75.56 51.976 75.56H43.912C42.696 75.56 41.896 74.92 41.512 73.64L31.528 41.384H31.144V86.984C31.144 87.752 31.016 88.296 30.76 88.616C30.504 88.872 29.96 89 29.128 89H21.256C19.912 89 19.24 88.328 19.24 86.984V29.288C19.24 27.944 19.912 27.272 21.256 27.272H35.56C36.456 27.272 37.064 27.72 37.384 28.616L47.56 62.504H48.136L58.408 28.616C58.6 27.72 59.208 27.272 60.232 27.272ZM95.3282 89H86.1123C84.9603 89 84.5763 88.328 84.9603 86.984L100.128 29.288C100.576 27.944 101.536 27.272 103.008 27.272H115.776C117.376 27.272 118.336 27.944 118.656 29.288L133.824 86.984C134.208 88.328 133.824 89 132.672 89H123.456C122.752 89 122.272 88.872 122.016 88.616C121.76 88.296 121.568 87.752 121.44 86.984L118.752 76.424H100.032L97.3443 86.984C97.2163 87.752 96.9923 88.296 96.6723 88.616C96.4163 88.872 95.9683 89 95.3282 89ZM109.248 38.888L102.336 66.632H116.544L109.632 38.888H109.248ZM152.51 89H144.35C143.006 89 142.334 88.328 142.334 86.984V29.288C142.334 27.944 143.006 27.272 144.35 27.272H152.51C153.854 27.272 154.526 27.944 154.526 29.288V56.648H154.718C155.23 55.112 156.222 53.128 157.694 50.696L172.286 29.288C173.118 27.944 174.366 27.272 176.03 27.272H185.438C186.142 27.272 186.558 27.496 186.686 27.944C186.878 28.328 186.718 28.84 186.206 29.48L167.966 54.728L188.318 86.6C188.766 87.368 188.83 87.976 188.51 88.424C188.254 88.808 187.678 89 186.782 89H179.774C177.534 89 176.03 88.328 175.262 86.984L160.574 63.464L154.526 70.568V86.984C154.526 88.328 153.854 89 152.51 89ZM229.273 89H197.881C196.537 89 195.865 88.328 195.865 86.984V29.288C195.865 27.944 196.537 27.272 197.881 27.272H229.273C230.553 27.272 231.193 27.944 231.193 29.288V35.816C231.193 37.16 230.553 37.832 229.273 37.832H209.209C208.441 37.832 208.057 38.184 208.057 38.888V51.368C208.057 52.072 208.441 52.424 209.209 52.424H225.625C226.969 52.424 227.641 53.096 227.641 54.44V60.968C227.641 62.312 226.969 62.984 225.625 62.984H209.209C208.441 62.984 208.057 63.336 208.057 64.04V77.384C208.057 78.088 208.441 78.44 209.209 78.44H229.273C230.553 78.44 231.193 79.112 231.193 80.456V86.984C231.193 88.328 230.553 89 229.273 89ZM251.979 89H243.819C242.475 89 241.803 88.328 241.803 86.984V29.288C241.803 27.944 242.475 27.272 243.819 27.272H266.667C271.659 27.272 275.563 28.648 278.379 31.4C281.195 34.152 282.603 38.024 282.603 43.016V50.504C282.603 57.736 279.755 62.536 274.059 64.904V65.288L284.331 86.696C284.907 88.232 284.363 89 282.699 89H274.923C273.771 89 272.939 88.872 272.427 88.616C271.915 88.36 271.499 87.816 271.179 86.984L261.579 66.248H255.147C254.379 66.248 253.995 66.6 253.995 67.304V86.984C253.995 88.328 253.323 89 251.979 89ZM255.051 56.456H264.459C266.507 56.456 268.011 56.04 268.971 55.208C269.931 54.312 270.411 52.904 270.411 50.984V43.496C270.411 41.512 269.931 40.072 268.971 39.176C268.011 38.28 266.507 37.832 264.459 37.832H255.051C254.347 37.832 253.995 38.184 253.995 38.888V55.4C253.995 56.104 254.347 56.456 255.051 56.456Z" fill="#F5F6F1"/>
<path d="M321.208 89H316.792C316.152 89 315.736 88.616 315.544 87.848L297.688 28.424C297.432 27.656 297.72 27.272 298.552 27.272H301.528C302.168 27.272 302.584 27.656 302.776 28.424L318.808 83.048H319.192L335.224 28.424C335.416 27.656 335.832 27.272 336.472 27.272H339.448C340.216 27.272 340.504 27.656 340.312 28.424L322.456 87.848C322.264 88.616 321.848 89 321.208 89ZM381.784 89H352.12C351.48 89 351.16 88.616 351.16 87.848V28.424C351.16 27.656 351.48 27.272 352.12 27.272H381.784C382.552 27.272 382.936 27.624 382.936 28.328V30.536C382.936 31.24 382.552 31.592 381.784 31.592H356.92C356.28 31.592 355.96 31.88 355.96 32.456V54.536C355.96 55.112 356.28 55.4 356.92 55.4H379.096C379.8 55.4 380.152 55.752 380.152 56.456V58.664C380.152 59.368 379.8 59.72 379.096 59.72H356.92C356.28 59.72 355.96 60.008 355.96 60.584V83.816C355.96 84.392 356.28 84.68 356.92 84.68H381.784C382.552 84.68 382.936 85.032 382.936 85.736V87.944C382.936 88.648 382.552 89 381.784 89ZM401.123 89H398.339C397.699 89 397.379 88.616 397.379 87.848V28.424C397.379 27.656 397.699 27.272 398.339 27.272H400.931C401.507 27.272 401.891 27.464 402.083 27.848L431.555 78.536H431.939V28.424C431.939 27.656 432.291 27.272 432.995 27.272H435.683C436.387 27.272 436.739 27.656 436.739 28.424V87.848C436.739 88.616 436.387 89 435.683 89H433.475C432.899 89 432.387 88.648 431.939 87.944L402.563 37.64H402.179V87.848C402.179 88.616 401.827 89 401.123 89ZM466.413 89H463.629C462.925 89 462.573 88.616 462.573 87.848V32.456C462.573 31.88 462.253 31.592 461.613 31.592H447.693C446.925 31.592 446.541 31.24 446.541 30.536V28.328C446.541 27.624 446.925 27.272 447.693 27.272H482.253C483.021 27.272 483.405 27.624 483.405 28.328V30.536C483.405 31.24 483.021 31.592 482.253 31.592H468.333C467.693 31.592 467.373 31.88 467.373 32.456V87.848C467.373 88.616 467.053 89 466.413 89ZM506.149 84.68H517.093C520.037 84.68 522.277 83.88 523.813 82.28C525.413 80.616 526.213 78.248 526.213 75.176V41.096C526.213 38.024 525.413 35.688 523.813 34.088C522.277 32.424 520.037 31.592 517.093 31.592H506.149C503.205 31.592 500.965 32.424 499.429 34.088C497.893 35.752 497.125 38.088 497.125 41.096V75.176C497.125 78.184 497.893 80.52 499.429 82.184C500.965 83.848 503.205 84.68 506.149 84.68ZM517.573 89H505.765C501.605 89 498.309 87.784 495.877 85.352C493.509 82.92 492.325 79.592 492.325 75.368V40.904C492.325 36.68 493.509 33.352 495.877 30.92C498.309 28.488 501.605 27.272 505.765 27.272H517.573C521.733 27.272 524.997 28.488 527.365 30.92C529.797 33.352 531.013 36.68 531.013 40.904V75.368C531.013 79.592 529.797 82.92 527.365 85.352C524.997 87.784 521.733 89 517.573 89ZM550.092 89H547.308C546.668 89 546.348 88.616 546.348 87.848V28.424C546.348 27.656 546.668 27.272 547.308 27.272H569.196C573.356 27.272 576.652 28.488 579.084 30.92C581.516 33.352 582.732 36.68 582.732 40.904V50.024C582.732 53.608 581.804 56.552 579.948 58.856C578.156 61.16 575.692 62.632 572.556 63.272V63.656L583.98 87.848C584.364 88.616 584.14 89 583.308 89H580.332C579.5 89 578.924 88.616 578.604 87.848L567.276 63.656H552.108C551.468 63.656 551.148 63.944 551.148 64.52V87.848C551.148 88.616 550.796 89 550.092 89ZM552.108 59.528H568.716C571.66 59.528 573.932 58.728 575.532 57.128C577.132 55.464 577.932 53.128 577.932 50.12V41.096C577.932 38.088 577.132 35.752 575.532 34.088C573.932 32.424 571.66 31.592 568.716 31.592H552.108C551.468 31.592 551.148 31.88 551.148 32.456V58.664C551.148 59.24 551.468 59.528 552.108 59.528ZM614.525 89H611.741C611.037 89 610.685 88.616 610.685 87.848V65.672L592.061 28.424C591.677 27.656 591.901 27.272 592.733 27.272H596.189C596.765 27.272 597.213 27.656 597.533 28.424L612.893 59.816H613.373L628.637 28.424C628.957 27.656 629.405 27.272 629.981 27.272H633.533C634.237 27.272 634.461 27.656 634.205 28.424L615.485 65.672V87.848C615.485 88.616 615.165 89 614.525 89Z" fill="#F5F6F1"/>
</g>
<defs>
<filter id="filter0_d_5_2" x="15.24" y="27.272" width="623.349" height="69.728" filterUnits="userSpaceOnUse" color-interpolation-filters="sRGB">
<feFlood flood-opacity="0" result="BackgroundImageFix"/>
<feColorMatrix in="SourceAlpha" type="matrix" values="0 0 0 0 0 0 0 0 0 0 0 0 0 0 0 0 0 0 127 0" result="hardAlpha"/>
<feOffset dy="4"/>
<feGaussianBlur stdDeviation="2"/>
<feComposite in2="hardAlpha" operator="out"/>
<feColorMatrix type="matrix" values="0 0 0 0 0 0 0 0 0 0 0 0 0 0 0 0 0 0 0.25 0"/>
<feBlend mode="normal" in2="BackgroundImageFix" result="effect1_dropShadow_5_2"/>
<feBlend mode="normal" in="SourceGraphic" in2="effect1_dropShadow_5_2" result="shape"/>
</filter>
</defs>
</svg>
