<svg width="192" height="192" viewBox="0 0 192 192" fill="none" xmlns="http://www.w3.org/2000/svg">
<g clip-path="url(#clip0_13_239)">
<mask id="mask0_13_239" style="mask-type:luminance" maskUnits="userSpaceOnUse" x="0" y="0" width="192" height="192">
<path d="M192 0H0V192H192V0Z" fill="white"/>
</mask>
<g mask="url(#mask0_13_239)">
<path d="M192 0H0V192H192V0Z" fill="#394851"/>
<g filter="url(#filter0_d_13_239)">
<path d="M118.351 147.184L97.389 155.057V135.376L118.351 127.746V147.184ZM134.768 141.018L122.729 145.54V126.327H122.252L134.768 121.771V141.018ZM149.793 135.376L139.146 139.374V120.177L149.793 116.302V135.376Z" fill="#F5F6F1"/>
</g>
<g filter="url(#filter1_d_13_239)">
<path d="M94.644 135.502V155.057L73.4768 147.139V127.798L94.644 135.502ZM69.4328 126.326H69.0986V145.501L57.0593 140.997V121.823L69.4328 126.326ZM52.8934 120.307H52.6811V139.36L42.369 135.502V116.476L52.8934 120.307Z" fill="#F5F6F1"/>
</g>
<g filter="url(#filter2_d_13_239)">
<path d="M42.8306 79.8105H57.6064V118.939L42.8306 113.74V79.8105Z" fill="#F5F6F1"/>
</g>
<g filter="url(#filter3_d_13_239)">
<path d="M149.544 79.8105H134.769V119.212L149.544 113.977V79.8105Z" fill="#F5F6F1"/>
</g>
<g filter="url(#filter4_d_13_239)">
<path d="M95.9137 88.5663C97.7272 88.5663 99.1972 87.0962 99.1972 85.2828C99.1972 83.4693 97.7272 81.9993 95.9137 81.9993C94.1003 81.9993 92.6302 83.4693 92.6302 85.2828C92.6302 87.0962 94.1003 88.5663 95.9137 88.5663Z" fill="#1297E2"/>
</g>
<g filter="url(#filter5_d_13_239)">
<path d="M42.8306 39C42.8306 37.9646 43.6703 37.125 44.7056 37.125H55.7314C56.7671 37.125 57.6064 37.9646 57.6064 39V52.9954H42.8306V39Z" fill="#F5F6F1"/>
</g>
<g filter="url(#filter6_d_13_239)">
<path d="M134.769 39C134.769 37.9646 135.608 37.125 136.644 37.125H147.669C148.705 37.125 149.544 37.9646 149.544 39V52.9954H134.769V39Z" fill="#F5F6F1"/>
</g>
<g filter="url(#filter7_d_13_239)">
<path d="M60.1095 54.6372C61.1449 54.6372 61.9845 55.4764 61.9845 56.5122V59.0153H86.0632V56.5122C86.0632 55.4764 86.9029 54.6372 87.9382 54.6372H93.7249V52.4479L93.9983 49.9853L94.8195 47.7964L96.1875 45.8809L97.8292 44.5129L99.1973 43.692L100.292 43.1445L102.481 42.5974H134.769V46.9755H104.123L102.481 47.2493L101.113 48.0702L100.018 49.1644L98.9235 51.0795L98.3764 52.9954V54.6372H103.889C104.925 54.6372 105.764 55.4764 105.764 56.5122V59.0153H130.391V56.5122C130.391 55.4764 131.23 54.6372 132.266 54.6372H151.5C152.535 54.6372 153.375 55.4764 153.375 56.5122V75.7467C153.375 76.782 152.535 77.6217 151.5 77.6217H132.266C131.23 77.6217 130.391 76.782 130.391 75.7467V72.1489H105.764V74.652C105.764 75.6874 104.925 76.527 103.889 76.527H103.028V78.483C103.028 79.5184 102.188 80.358 101.153 80.358H90.6746C89.6392 80.3577 88.7996 79.5184 88.7996 78.483V76.527H87.9382C86.9029 76.527 86.0632 75.6874 86.0632 74.652V72.1489H61.9845V75.7467C61.9845 76.782 61.1449 77.6217 60.1095 77.6217H40.875C39.8396 77.6217 39 76.782 39 75.7467V56.5122C39 55.4764 39.8396 54.6372 40.875 54.6372H60.1095ZM61.9845 67.7708H86.0632V63.393H61.9845V67.7708ZM105.764 67.7708H130.391V63.393H105.764V67.7708Z" fill="#F5F6F1"/>
</g>
<g filter="url(#filter8_d_13_239)">
<path d="M95.7117 91.8691C95.7499 91.8567 95.7908 91.8567 95.829 91.8695L127.418 102.352C127.586 102.408 127.59 102.645 127.423 102.706L95.8343 114.264C95.793 114.279 95.7476 114.279 95.7064 114.264L63.5933 102.706C63.4253 102.646 63.4286 102.407 63.5985 102.352L95.7117 91.8691Z" fill="#F5F6F1"/>
</g>
<g filter="url(#filter9_d_13_239)">
<path d="M122.252 108.829C122.295 108.814 122.342 108.816 122.384 108.833L127.895 111.088C128.053 111.153 128.05 111.377 127.89 111.437L95.877 123.421C95.8298 123.478 95.7522 123.505 95.6753 123.48C95.6355 123.478 95.5984 123.464 95.568 123.44L63.5273 111.445C63.3675 111.385 63.3641 111.16 63.522 111.096L69.0334 108.841C69.0754 108.824 69.1226 108.823 69.1658 108.838L95.6966 118.04L122.252 108.829Z" fill="#F5F6F1"/>
</g>
<g filter="url(#filter10_d_13_239)">
<path d="M122.322 118.122C122.365 118.107 122.412 118.108 122.454 118.126L127.966 120.381C128.124 120.445 128.12 120.67 127.96 120.73L95.9479 132.714C95.9006 132.771 95.8226 132.798 95.7461 132.772C95.706 132.771 95.6685 132.757 95.6381 132.732L63.5977 120.738C63.4384 120.678 63.435 120.453 63.5925 120.388L69.1039 118.134C69.1459 118.117 69.1931 118.116 69.2362 118.131L95.7671 127.333L122.322 118.122Z" fill="#F5F6F1"/>
</g>
</g>
</g>
<defs>
<filter id="filter0_d_13_239" x="93.389" y="116.302" width="60.4044" height="46.7544" filterUnits="userSpaceOnUse" color-interpolation-filters="sRGB">
<feFlood flood-opacity="0" result="BackgroundImageFix"/>
<feColorMatrix in="SourceAlpha" type="matrix" values="0 0 0 0 0 0 0 0 0 0 0 0 0 0 0 0 0 0 127 0" result="hardAlpha"/>
<feOffset dy="4"/>
<feGaussianBlur stdDeviation="2"/>
<feComposite in2="hardAlpha" operator="out"/>
<feColorMatrix type="matrix" values="0 0 0 0 0 0 0 0 0 0 0 0 0 0 0 0 0 0 0.25 0"/>
<feBlend mode="normal" in2="BackgroundImageFix" result="effect1_dropShadow_13_239"/>
<feBlend mode="normal" in="SourceGraphic" in2="effect1_dropShadow_13_239" result="shape"/>
</filter>
<filter id="filter1_d_13_239" x="38.369" y="116.476" width="60.275" height="46.5811" filterUnits="userSpaceOnUse" color-interpolation-filters="sRGB">
<feFlood flood-opacity="0" result="BackgroundImageFix"/>
<feColorMatrix in="SourceAlpha" type="matrix" values="0 0 0 0 0 0 0 0 0 0 0 0 0 0 0 0 0 0 127 0" result="hardAlpha"/>
<feOffset dy="4"/>
<feGaussianBlur stdDeviation="2"/>
<feComposite in2="hardAlpha" operator="out"/>
<feColorMatrix type="matrix" values="0 0 0 0 0 0 0 0 0 0 0 0 0 0 0 0 0 0 0.25 0"/>
<feBlend mode="normal" in2="BackgroundImageFix" result="effect1_dropShadow_13_239"/>
<feBlend mode="normal" in="SourceGraphic" in2="effect1_dropShadow_13_239" result="shape"/>
</filter>
<filter id="filter2_d_13_239" x="38.8306" y="79.8105" width="22.7758" height="47.1282" filterUnits="userSpaceOnUse" color-interpolation-filters="sRGB">
<feFlood flood-opacity="0" result="BackgroundImageFix"/>
<feColorMatrix in="SourceAlpha" type="matrix" values="0 0 0 0 0 0 0 0 0 0 0 0 0 0 0 0 0 0 127 0" result="hardAlpha"/>
<feOffset dy="4"/>
<feGaussianBlur stdDeviation="2"/>
<feComposite in2="hardAlpha" operator="out"/>
<feColorMatrix type="matrix" values="0 0 0 0 0 0 0 0 0 0 0 0 0 0 0 0 0 0 0.25 0"/>
<feBlend mode="normal" in2="BackgroundImageFix" result="effect1_dropShadow_13_239"/>
<feBlend mode="normal" in="SourceGraphic" in2="effect1_dropShadow_13_239" result="shape"/>
</filter>
<filter id="filter3_d_13_239" x="130.769" y="79.8105" width="22.7758" height="47.4016" filterUnits="userSpaceOnUse" color-interpolation-filters="sRGB">
<feFlood flood-opacity="0" result="BackgroundImageFix"/>
<feColorMatrix in="SourceAlpha" type="matrix" values="0 0 0 0 0 0 0 0 0 0 0 0 0 0 0 0 0 0 127 0" result="hardAlpha"/>
<feOffset dy="4"/>
<feGaussianBlur stdDeviation="2"/>
<feComposite in2="hardAlpha" operator="out"/>
<feColorMatrix type="matrix" values="0 0 0 0 0 0 0 0 0 0 0 0 0 0 0 0 0 0 0.25 0"/>
<feBlend mode="normal" in2="BackgroundImageFix" result="effect1_dropShadow_13_239"/>
<feBlend mode="normal" in="SourceGraphic" in2="effect1_dropShadow_13_239" result="shape"/>
</filter>
<filter id="filter4_d_13_239" x="88.6302" y="81.9993" width="14.567" height="14.5669" filterUnits="userSpaceOnUse" color-interpolation-filters="sRGB">
<feFlood flood-opacity="0" result="BackgroundImageFix"/>
<feColorMatrix in="SourceAlpha" type="matrix" values="0 0 0 0 0 0 0 0 0 0 0 0 0 0 0 0 0 0 127 0" result="hardAlpha"/>
<feOffset dy="4"/>
<feGaussianBlur stdDeviation="2"/>
<feComposite in2="hardAlpha" operator="out"/>
<feColorMatrix type="matrix" values="0 0 0 0 0 0 0 0 0 0 0 0 0 0 0 0 0 0 0.25 0"/>
<feBlend mode="normal" in2="BackgroundImageFix" result="effect1_dropShadow_13_239"/>
<feBlend mode="normal" in="SourceGraphic" in2="effect1_dropShadow_13_239" result="shape"/>
</filter>
<filter id="filter5_d_13_239" x="38.8306" y="37.125" width="22.7758" height="23.8704" filterUnits="userSpaceOnUse" color-interpolation-filters="sRGB">
<feFlood flood-opacity="0" result="BackgroundImageFix"/>
<feColorMatrix in="SourceAlpha" type="matrix" values="0 0 0 0 0 0 0 0 0 0 0 0 0 0 0 0 0 0 127 0" result="hardAlpha"/>
<feOffset dy="4"/>
<feGaussianBlur stdDeviation="2"/>
<feComposite in2="hardAlpha" operator="out"/>
<feColorMatrix type="matrix" values="0 0 0 0 0 0 0 0 0 0 0 0 0 0 0 0 0 0 0.25 0"/>
<feBlend mode="normal" in2="BackgroundImageFix" result="effect1_dropShadow_13_239"/>
<feBlend mode="normal" in="SourceGraphic" in2="effect1_dropShadow_13_239" result="shape"/>
</filter>
<filter id="filter6_d_13_239" x="130.769" y="37.125" width="22.7758" height="23.8704" filterUnits="userSpaceOnUse" color-interpolation-filters="sRGB">
<feFlood flood-opacity="0" result="BackgroundImageFix"/>
<feColorMatrix in="SourceAlpha" type="matrix" values="0 0 0 0 0 0 0 0 0 0 0 0 0 0 0 0 0 0 127 0" result="hardAlpha"/>
<feOffset dy="4"/>
<feGaussianBlur stdDeviation="2"/>
<feComposite in2="hardAlpha" operator="out"/>
<feColorMatrix type="matrix" values="0 0 0 0 0 0 0 0 0 0 0 0 0 0 0 0 0 0 0.25 0"/>
<feBlend mode="normal" in2="BackgroundImageFix" result="effect1_dropShadow_13_239"/>
<feBlend mode="normal" in="SourceGraphic" in2="effect1_dropShadow_13_239" result="shape"/>
</filter>
<filter id="filter7_d_13_239" x="35" y="42.5974" width="122.375" height="45.7605" filterUnits="userSpaceOnUse" color-interpolation-filters="sRGB">
<feFlood flood-opacity="0" result="BackgroundImageFix"/>
<feColorMatrix in="SourceAlpha" type="matrix" values="0 0 0 0 0 0 0 0 0 0 0 0 0 0 0 0 0 0 127 0" result="hardAlpha"/>
<feOffset dy="4"/>
<feGaussianBlur stdDeviation="2"/>
<feComposite in2="hardAlpha" operator="out"/>
<feColorMatrix type="matrix" values="0 0 0 0 0 0 0 0 0 0 0 0 0 0 0 0 0 0 0.25 0"/>
<feBlend mode="normal" in2="BackgroundImageFix" result="effect1_dropShadow_13_239"/>
<feBlend mode="normal" in="SourceGraphic" in2="effect1_dropShadow_13_239" result="shape"/>
</filter>
<filter id="filter8_d_13_239" x="59.4692" y="91.8599" width="72.0771" height="30.4153" filterUnits="userSpaceOnUse" color-interpolation-filters="sRGB">
<feFlood flood-opacity="0" result="BackgroundImageFix"/>
<feColorMatrix in="SourceAlpha" type="matrix" values="0 0 0 0 0 0 0 0 0 0 0 0 0 0 0 0 0 0 127 0" result="hardAlpha"/>
<feOffset dy="4"/>
<feGaussianBlur stdDeviation="2"/>
<feComposite in2="hardAlpha" operator="out"/>
<feColorMatrix type="matrix" values="0 0 0 0 0 0 0 0 0 0 0 0 0 0 0 0 0 0 0.25 0"/>
<feBlend mode="normal" in2="BackgroundImageFix" result="effect1_dropShadow_13_239"/>
<feBlend mode="normal" in="SourceGraphic" in2="effect1_dropShadow_13_239" result="shape"/>
</filter>
<filter id="filter9_d_13_239" x="59.4055" y="108.819" width="72.6061" height="22.6699" filterUnits="userSpaceOnUse" color-interpolation-filters="sRGB">
<feFlood flood-opacity="0" result="BackgroundImageFix"/>
<feColorMatrix in="SourceAlpha" type="matrix" values="0 0 0 0 0 0 0 0 0 0 0 0 0 0 0 0 0 0 127 0" result="hardAlpha"/>
<feOffset dy="4"/>
<feGaussianBlur stdDeviation="2"/>
<feComposite in2="hardAlpha" operator="out"/>
<feColorMatrix type="matrix" values="0 0 0 0 0 0 0 0 0 0 0 0 0 0 0 0 0 0 0.25 0"/>
<feBlend mode="normal" in2="BackgroundImageFix" result="effect1_dropShadow_13_239"/>
<feBlend mode="normal" in="SourceGraphic" in2="effect1_dropShadow_13_239" result="shape"/>
</filter>
<filter id="filter10_d_13_239" x="59.4763" y="118.112" width="72.606" height="22.6702" filterUnits="userSpaceOnUse" color-interpolation-filters="sRGB">
<feFlood flood-opacity="0" result="BackgroundImageFix"/>
<feColorMatrix in="SourceAlpha" type="matrix" values="0 0 0 0 0 0 0 0 0 0 0 0 0 0 0 0 0 0 127 0" result="hardAlpha"/>
<feOffset dy="4"/>
<feGaussianBlur stdDeviation="2"/>
<feComposite in2="hardAlpha" operator="out"/>
<feColorMatrix type="matrix" values="0 0 0 0 0 0 0 0 0 0 0 0 0 0 0 0 0 0 0.25 0"/>
<feBlend mode="normal" in2="BackgroundImageFix" result="effect1_dropShadow_13_239"/>
<feBlend mode="normal" in="SourceGraphic" in2="effect1_dropShadow_13_239" result="shape"/>
</filter>
<clipPath id="clip0_13_239">
<rect width="192" height="192" fill="white"/>
</clipPath>
</defs>
</svg>
