<svg width="512" height="512" viewBox="0 0 512 512" fill="none" xmlns="http://www.w3.org/2000/svg">
<g filter="url(#filter0_d_1_144)">
<path d="M315.603 392.491L259.704 413.485V361.003L315.603 340.656V392.491ZM359.382 376.049L327.278 388.106V336.871H326.005L359.382 324.723V376.049ZM399.449 361.003L371.057 371.665V320.473L399.449 310.14V361.003Z" fill="#F5F6F1"/>
</g>
<g filter="url(#filter1_d_1_144)">
<path d="M252.384 361.34V413.486L195.938 392.37V340.795L252.384 361.34ZM185.154 336.87H184.263V388.003L152.158 375.994V324.861L185.154 336.87ZM141.049 320.818H140.483V371.626L112.984 361.34V310.603L141.049 320.818Z" fill="#F5F6F1"/>
</g>
<g filter="url(#filter2_d_1_144)">
<path d="M114.215 212.828H153.617V317.17L114.215 303.306V212.828Z" fill="#F5F6F1"/>
</g>
<g filter="url(#filter3_d_1_144)">
<path d="M398.785 212.828H359.383V317.9L398.785 303.939V212.828Z" fill="#F5F6F1"/>
</g>
<g filter="url(#filter4_d_1_144)">
<circle cx="255.77" cy="227.421" r="8.75598" fill="#1297E2"/>
</g>
<g filter="url(#filter5_d_1_144)">
<path d="M114.215 104C114.215 101.239 116.454 99 119.215 99H148.617C151.379 99 153.617 101.239 153.617 104V141.321H114.215V104Z" fill="#F5F6F1"/>
</g>
<g filter="url(#filter6_d_1_144)">
<path d="M359.383 104C359.383 101.239 361.621 99 364.383 99H393.785C396.546 99 398.785 101.239 398.785 104V141.321H359.383V104Z" fill="#F5F6F1"/>
</g>
<g filter="url(#filter7_d_1_144)">
<path d="M160.292 145.699C163.053 145.699 165.292 147.937 165.292 150.699V157.374H229.502V150.699C229.502 147.937 231.741 145.699 234.502 145.699H249.933V139.861L250.662 133.294L252.852 127.457L256.5 122.349L260.878 118.701L264.526 116.512L267.444 115.052L273.282 113.593H359.383V125.268H277.66L273.282 125.998L269.634 128.187L266.715 131.105L263.796 136.212L262.337 141.321V145.699H277.038C279.799 145.699 282.038 147.937 282.038 150.699V157.374H347.708V150.699C347.708 147.937 349.947 145.699 352.708 145.699H404C406.761 145.699 409 147.937 409 150.699V201.991C409 204.752 406.761 206.991 404 206.991H352.708C349.947 206.991 347.708 204.752 347.708 201.991V192.397H282.038V199.072C282.038 201.833 279.799 204.072 277.038 204.072H274.741V209.288C274.741 212.049 272.502 214.288 269.741 214.288H241.799C239.038 214.287 236.799 212.049 236.799 209.288V204.072H234.502C231.741 204.072 229.502 201.833 229.502 199.072V192.397H165.292V201.991C165.292 204.752 163.053 206.991 160.292 206.991H109C106.239 206.991 104 204.752 104 201.991V150.699C104 147.937 106.239 145.699 109 145.699H160.292ZM165.292 180.722H229.502V169.048H165.292V180.722ZM282.038 180.722H347.708V169.048H282.038V180.722Z" fill="#F5F6F1"/>
</g>
<g filter="url(#filter8_d_1_144)">
<path d="M255.231 244.984C255.333 244.951 255.442 244.951 255.544 244.985L339.781 272.938C340.23 273.088 340.24 273.72 339.795 273.882L255.558 304.703C255.448 304.743 255.327 304.744 255.217 304.704L169.582 273.883C169.134 273.722 169.143 273.085 169.596 272.938L255.231 244.984Z" fill="#F5F6F1"/>
</g>
<g filter="url(#filter9_d_1_144)">
<path d="M326.004 290.212C326.119 290.172 326.245 290.176 326.358 290.222L341.054 296.234C341.475 296.406 341.465 297.006 341.039 297.165L255.671 329.124C255.546 329.274 255.339 329.346 255.135 329.279C255.028 329.275 254.929 329.238 254.848 329.174L169.406 297.187C168.981 297.027 168.971 296.429 169.392 296.256L184.088 290.243C184.201 290.197 184.327 290.194 184.442 290.234L255.19 314.773L326.004 290.212Z" fill="#F5F6F1"/>
</g>
<g filter="url(#filter10_d_1_144)">
<path d="M326.192 314.993C326.307 314.953 326.433 314.956 326.546 315.002L341.242 321.015C341.663 321.188 341.653 321.786 341.227 321.946L255.859 353.905C255.734 354.054 255.527 354.127 255.322 354.06C255.216 354.055 255.117 354.019 255.036 353.955L169.595 321.967C169.169 321.808 169.159 321.209 169.58 321.037L184.276 315.024C184.389 314.978 184.515 314.975 184.63 315.015L255.38 339.554L326.192 314.993Z" fill="#F5F6F1"/>
</g>
<defs>
<filter id="filter0_d_1_144" x="255.704" y="310.14" width="147.745" height="111.346" filterUnits="userSpaceOnUse" color-interpolation-filters="sRGB">
<feFlood flood-opacity="0" result="BackgroundImageFix"/>
<feColorMatrix in="SourceAlpha" type="matrix" values="0 0 0 0 0 0 0 0 0 0 0 0 0 0 0 0 0 0 127 0" result="hardAlpha"/>
<feOffset dy="4"/>
<feGaussianBlur stdDeviation="2"/>
<feComposite in2="hardAlpha" operator="out"/>
<feColorMatrix type="matrix" values="0 0 0 0 0 0 0 0 0 0 0 0 0 0 0 0 0 0 0.25 0"/>
<feBlend mode="normal" in2="BackgroundImageFix" result="effect1_dropShadow_1_144"/>
<feBlend mode="normal" in="SourceGraphic" in2="effect1_dropShadow_1_144" result="shape"/>
</filter>
<filter id="filter1_d_1_144" x="108.984" y="310.603" width="147.4" height="110.883" filterUnits="userSpaceOnUse" color-interpolation-filters="sRGB">
<feFlood flood-opacity="0" result="BackgroundImageFix"/>
<feColorMatrix in="SourceAlpha" type="matrix" values="0 0 0 0 0 0 0 0 0 0 0 0 0 0 0 0 0 0 127 0" result="hardAlpha"/>
<feOffset dy="4"/>
<feGaussianBlur stdDeviation="2"/>
<feComposite in2="hardAlpha" operator="out"/>
<feColorMatrix type="matrix" values="0 0 0 0 0 0 0 0 0 0 0 0 0 0 0 0 0 0 0.25 0"/>
<feBlend mode="normal" in2="BackgroundImageFix" result="effect1_dropShadow_1_144"/>
<feBlend mode="normal" in="SourceGraphic" in2="effect1_dropShadow_1_144" result="shape"/>
</filter>
<filter id="filter2_d_1_144" x="110.215" y="212.828" width="47.4019" height="112.342" filterUnits="userSpaceOnUse" color-interpolation-filters="sRGB">
<feFlood flood-opacity="0" result="BackgroundImageFix"/>
<feColorMatrix in="SourceAlpha" type="matrix" values="0 0 0 0 0 0 0 0 0 0 0 0 0 0 0 0 0 0 127 0" result="hardAlpha"/>
<feOffset dy="4"/>
<feGaussianBlur stdDeviation="2"/>
<feComposite in2="hardAlpha" operator="out"/>
<feColorMatrix type="matrix" values="0 0 0 0 0 0 0 0 0 0 0 0 0 0 0 0 0 0 0.25 0"/>
<feBlend mode="normal" in2="BackgroundImageFix" result="effect1_dropShadow_1_144"/>
<feBlend mode="normal" in="SourceGraphic" in2="effect1_dropShadow_1_144" result="shape"/>
</filter>
<filter id="filter3_d_1_144" x="355.383" y="212.828" width="47.4019" height="113.072" filterUnits="userSpaceOnUse" color-interpolation-filters="sRGB">
<feFlood flood-opacity="0" result="BackgroundImageFix"/>
<feColorMatrix in="SourceAlpha" type="matrix" values="0 0 0 0 0 0 0 0 0 0 0 0 0 0 0 0 0 0 127 0" result="hardAlpha"/>
<feOffset dy="4"/>
<feGaussianBlur stdDeviation="2"/>
<feComposite in2="hardAlpha" operator="out"/>
<feColorMatrix type="matrix" values="0 0 0 0 0 0 0 0 0 0 0 0 0 0 0 0 0 0 0.25 0"/>
<feBlend mode="normal" in2="BackgroundImageFix" result="effect1_dropShadow_1_144"/>
<feBlend mode="normal" in="SourceGraphic" in2="effect1_dropShadow_1_144" result="shape"/>
</filter>
<filter id="filter4_d_1_144" x="243.014" y="218.665" width="25.512" height="25.512" filterUnits="userSpaceOnUse" color-interpolation-filters="sRGB">
<feFlood flood-opacity="0" result="BackgroundImageFix"/>
<feColorMatrix in="SourceAlpha" type="matrix" values="0 0 0 0 0 0 0 0 0 0 0 0 0 0 0 0 0 0 127 0" result="hardAlpha"/>
<feOffset dy="4"/>
<feGaussianBlur stdDeviation="2"/>
<feComposite in2="hardAlpha" operator="out"/>
<feColorMatrix type="matrix" values="0 0 0 0 0 0 0 0 0 0 0 0 0 0 0 0 0 0 0.25 0"/>
<feBlend mode="normal" in2="BackgroundImageFix" result="effect1_dropShadow_1_144"/>
<feBlend mode="normal" in="SourceGraphic" in2="effect1_dropShadow_1_144" result="shape"/>
</filter>
<filter id="filter5_d_1_144" x="110.215" y="99" width="47.4019" height="50.3206" filterUnits="userSpaceOnUse" color-interpolation-filters="sRGB">
<feFlood flood-opacity="0" result="BackgroundImageFix"/>
<feColorMatrix in="SourceAlpha" type="matrix" values="0 0 0 0 0 0 0 0 0 0 0 0 0 0 0 0 0 0 127 0" result="hardAlpha"/>
<feOffset dy="4"/>
<feGaussianBlur stdDeviation="2"/>
<feComposite in2="hardAlpha" operator="out"/>
<feColorMatrix type="matrix" values="0 0 0 0 0 0 0 0 0 0 0 0 0 0 0 0 0 0 0.25 0"/>
<feBlend mode="normal" in2="BackgroundImageFix" result="effect1_dropShadow_1_144"/>
<feBlend mode="normal" in="SourceGraphic" in2="effect1_dropShadow_1_144" result="shape"/>
</filter>
<filter id="filter6_d_1_144" x="355.383" y="99" width="47.4019" height="50.3206" filterUnits="userSpaceOnUse" color-interpolation-filters="sRGB">
<feFlood flood-opacity="0" result="BackgroundImageFix"/>
<feColorMatrix in="SourceAlpha" type="matrix" values="0 0 0 0 0 0 0 0 0 0 0 0 0 0 0 0 0 0 127 0" result="hardAlpha"/>
<feOffset dy="4"/>
<feGaussianBlur stdDeviation="2"/>
<feComposite in2="hardAlpha" operator="out"/>
<feColorMatrix type="matrix" values="0 0 0 0 0 0 0 0 0 0 0 0 0 0 0 0 0 0 0.25 0"/>
<feBlend mode="normal" in2="BackgroundImageFix" result="effect1_dropShadow_1_144"/>
<feBlend mode="normal" in="SourceGraphic" in2="effect1_dropShadow_1_144" result="shape"/>
</filter>
<filter id="filter7_d_1_144" x="100" y="113.593" width="313" height="108.694" filterUnits="userSpaceOnUse" color-interpolation-filters="sRGB">
<feFlood flood-opacity="0" result="BackgroundImageFix"/>
<feColorMatrix in="SourceAlpha" type="matrix" values="0 0 0 0 0 0 0 0 0 0 0 0 0 0 0 0 0 0 127 0" result="hardAlpha"/>
<feOffset dy="4"/>
<feGaussianBlur stdDeviation="2"/>
<feComposite in2="hardAlpha" operator="out"/>
<feColorMatrix type="matrix" values="0 0 0 0 0 0 0 0 0 0 0 0 0 0 0 0 0 0 0.25 0"/>
<feBlend mode="normal" in2="BackgroundImageFix" result="effect1_dropShadow_1_144"/>
<feBlend mode="normal" in="SourceGraphic" in2="effect1_dropShadow_1_144" result="shape"/>
</filter>
<filter id="filter8_d_1_144" x="165.251" y="244.959" width="178.872" height="67.7743" filterUnits="userSpaceOnUse" color-interpolation-filters="sRGB">
<feFlood flood-opacity="0" result="BackgroundImageFix"/>
<feColorMatrix in="SourceAlpha" type="matrix" values="0 0 0 0 0 0 0 0 0 0 0 0 0 0 0 0 0 0 127 0" result="hardAlpha"/>
<feOffset dy="4"/>
<feGaussianBlur stdDeviation="2"/>
<feComposite in2="hardAlpha" operator="out"/>
<feColorMatrix type="matrix" values="0 0 0 0 0 0 0 0 0 0 0 0 0 0 0 0 0 0 0.25 0"/>
<feBlend mode="normal" in2="BackgroundImageFix" result="effect1_dropShadow_1_144"/>
<feBlend mode="normal" in="SourceGraphic" in2="effect1_dropShadow_1_144" result="shape"/>
</filter>
<filter id="filter9_d_1_144" x="165.082" y="290.185" width="180.283" height="47.1199" filterUnits="userSpaceOnUse" color-interpolation-filters="sRGB">
<feFlood flood-opacity="0" result="BackgroundImageFix"/>
<feColorMatrix in="SourceAlpha" type="matrix" values="0 0 0 0 0 0 0 0 0 0 0 0 0 0 0 0 0 0 127 0" result="hardAlpha"/>
<feOffset dy="4"/>
<feGaussianBlur stdDeviation="2"/>
<feComposite in2="hardAlpha" operator="out"/>
<feColorMatrix type="matrix" values="0 0 0 0 0 0 0 0 0 0 0 0 0 0 0 0 0 0 0.25 0"/>
<feBlend mode="normal" in2="BackgroundImageFix" result="effect1_dropShadow_1_144"/>
<feBlend mode="normal" in="SourceGraphic" in2="effect1_dropShadow_1_144" result="shape"/>
</filter>
<filter id="filter10_d_1_144" x="165.27" y="314.965" width="180.282" height="47.1201" filterUnits="userSpaceOnUse" color-interpolation-filters="sRGB">
<feFlood flood-opacity="0" result="BackgroundImageFix"/>
<feColorMatrix in="SourceAlpha" type="matrix" values="0 0 0 0 0 0 0 0 0 0 0 0 0 0 0 0 0 0 127 0" result="hardAlpha"/>
<feOffset dy="4"/>
<feGaussianBlur stdDeviation="2"/>
<feComposite in2="hardAlpha" operator="out"/>
<feColorMatrix type="matrix" values="0 0 0 0 0 0 0 0 0 0 0 0 0 0 0 0 0 0 0.25 0"/>
<feBlend mode="normal" in2="BackgroundImageFix" result="effect1_dropShadow_1_144"/>
<feBlend mode="normal" in="SourceGraphic" in2="effect1_dropShadow_1_144" result="shape"/>
</filter>
</defs>
</svg>
